<svg width="235" height="235" viewBox="0 0 235 235" fill="none" xmlns="http://www.w3.org/2000/svg">
<rect width="235" height="235" rx="117.5" fill="black"/>
<path d="M78.3335 161.955C78.3335 152.02 82.2716 142.637 89.093 135.944L132.975 87.4419C137.475 83.0264 139.937 77.1619 139.937 70.8835C139.937 57.9817 129.318 47.4947 116.167 47.4947C103.017 47.4947 92.3982 57.9817 92.3982 70.8835C92.3982 77.1619 94.8595 83.0264 99.6415 87.7179L106.674 95.5142L97.2505 105.932L89.4446 97.239C82.2716 90.2017 78.3335 80.8186 78.3335 70.8835C78.3335 50.3234 95.3517 33.627 116.167 33.627C136.983 33.627 154.001 50.3234 154.001 70.8835C154.001 80.8186 150.063 90.2017 143.242 96.8941L99.3602 145.397C94.8595 149.812 92.3982 155.677 92.3982 161.955C92.3982 174.857 103.017 185.344 116.167 185.344C129.318 185.344 139.937 174.857 139.937 161.955C139.937 155.746 137.475 149.812 132.693 145.121L125.591 137.255L135.014 126.837L142.89 135.599C149.993 142.637 153.931 151.951 153.931 161.955C153.931 182.515 136.983 199.212 116.097 199.212C95.2111 199.212 78.3335 182.515 78.3335 161.955Z" fill="url(#paint0_linear_15_582)"/>
<path d="M115.371 33.6268V47.4928C115.371 47.4928 99.839 47.8834 94.4625 61.7495C89.9757 73.321 94.162 80.2683 95.4986 82.4865L95.5307 82.5397C98.0559 86.733 100.056 88.3411 102.41 90.973C116.396 106.611 137.664 129.069 137.664 129.069C139.999 131.97 142.895 135.235 145.403 138.346C146.599 139.829 159.776 154.906 151.213 175.803C139.863 200.215 119.154 199.043 118.557 199.127V185.249C118.557 185.249 131.301 184.982 137.872 171.506C143.049 158.421 136.796 150.487 135.944 149.163C134.04 146.202 129.925 142.416 129.925 142.416L88.6518 96.8763C88.6518 96.8763 78.3334 86.1616 78.3333 71.3191C78.3333 63.1321 81.1451 52.9782 88.2897 45.5399C101.233 32.0644 115.371 33.6268 115.371 33.6268Z" fill="white"/>
<defs>
<linearGradient id="paint0_linear_15_582" x1="83.9287" y1="159.464" x2="128.691" y2="67.1427" gradientUnits="userSpaceOnUse">
<stop stop-color="white"/>
<stop offset="0.494792" stop-color="#0267FF"/>
<stop offset="1" stop-color="white"/>
</linearGradient>
</defs>
</svg>
